<svg id="svg" version="1.1" width="400" height="42" xmlns="http://www.w3.org/2000/svg" xmlns:xlink="http://www.w3.org/1999/xlink" ><g id="svgg"><path id="path0" d="M138.667 10.667 C 137.516 11.817,137.938 13.000,139.500 13.000 C 140.325 13.000,141.000 12.325,141.000 11.500 C 141.000 9.938,139.817 9.516,138.667 10.667 M207.412 11.369 C 207.123 12.122,207.024 15.124,207.193 18.041 C 207.555 24.297,209.715 25.992,210.186 20.389 C 210.638 15.014,213.000 14.687,213.000 20.000 C 213.000 24.488,215.210 25.323,215.833 21.070 C 216.463 16.768,215.150 14.000,212.481 14.000 C 210.667 14.000,210.000 13.463,210.000 12.000 C 210.000 9.731,208.208 9.295,207.412 11.369 M260.204 16.740 C 260.445 22.223,260.826 23.542,262.250 23.813 C 263.317 24.016,264.000 23.532,264.000 22.573 C 264.000 21.708,263.550 21.000,263.000 21.000 C 262.450 21.000,262.000 18.525,262.000 15.500 C 262.000 12.340,261.555 10.000,260.954 10.000 C 260.301 10.000,260.020 12.528,260.204 16.740 M265.204 16.740 C 265.445 22.223,265.826 23.542,267.250 23.813 C 268.317 24.016,269.000 23.532,269.000 22.573 C 269.000 21.708,268.550 21.000,268.000 21.000 C 267.450 21.000,267.000 18.525,267.000 15.500 C 267.000 12.340,266.555 10.000,265.954 10.000 C 265.301 10.000,265.020 12.528,265.204 16.740 M27.557 13.223 C 24.286 17.892,28.213 24.916,33.371 23.622 C 36.137 22.927,37.861 20.485,36.487 19.207 C 36.068 18.818,35.525 19.063,35.280 19.750 C 34.414 22.174,30.087 21.193,29.389 18.415 C 28.456 14.698,31.213 12.027,34.114 13.839 C 36.489 15.322,37.520 14.797,36.655 12.543 C 35.705 10.068,29.439 10.536,27.557 13.223 M87.000 12.417 C 87.000 13.196,86.438 14.062,85.750 14.341 C 84.808 14.723,84.788 15.054,85.669 15.683 C 86.311 16.142,86.986 18.089,87.169 20.009 C 87.505 23.556,90.781 25.158,91.750 22.250 C 91.979 21.563,91.454 21.000,90.583 21.000 C 88.668 21.000,88.389 16.452,90.250 15.583 C 91.250 15.117,91.250 14.883,90.250 14.417 C 89.563 14.096,89.000 13.196,89.000 12.417 C 89.000 11.637,88.550 11.000,88.000 11.000 C 87.450 11.000,87.000 11.637,87.000 12.417 M118.053 12.437 C 116.186 14.685,117.378 16.639,121.430 17.977 C 123.393 18.625,125.000 19.570,125.000 20.078 C 125.000 21.373,120.262 21.233,119.446 19.913 C 118.968 19.139,118.446 19.159,117.637 19.980 C 116.202 21.437,119.346 24.000,122.569 24.000 C 127.999 24.000,128.287 18.374,122.987 15.838 C 119.604 14.220,120.195 12.727,124.000 13.281 C 124.825 13.402,125.725 13.050,126.000 12.500 C 126.855 10.789,119.469 10.730,118.053 12.437 M196.000 12.000 C 196.000 12.550,196.651 13.000,197.448 13.000 C 198.486 13.000,198.981 14.463,199.198 18.171 C 199.631 25.578,202.000 25.927,202.000 18.583 C 202.000 13.667,202.239 13.000,204.000 13.000 C 205.100 13.000,206.000 12.550,206.000 12.000 C 206.000 11.450,203.750 11.000,201.000 11.000 C 198.250 11.000,196.000 11.450,196.000 12.000 M237.557 13.223 C 233.303 19.296,239.892 26.566,245.862 22.384 C 247.643 21.137,247.893 20.510,246.959 19.634 C 246.055 18.786,245.635 18.815,245.292 19.750 C 244.404 22.171,240.087 21.195,239.389 18.415 C 238.456 14.698,241.213 12.027,244.114 13.839 C 246.489 15.322,247.520 14.797,246.655 12.543 C 245.705 10.068,239.439 10.536,237.557 13.223 M309.528 13.089 C 312.402 22.143,315.627 26.144,316.710 22.000 C 316.998 20.900,317.578 20.000,318.000 20.000 C 318.422 20.000,319.002 20.900,319.290 22.000 C 320.196 25.466,321.582 24.207,324.243 17.500 C 327.264 9.885,325.483 8.071,322.033 15.250 L 319.991 19.500 320.480 15.417 C 320.957 11.445,320.889 11.333,318.000 11.333 C 315.116 11.333,315.048 11.445,315.643 15.167 C 316.454 20.242,314.693 20.131,313.000 15.000 C 312.274 12.800,311.047 11.000,310.273 11.000 C 309.300 11.000,309.070 11.646,309.528 13.089 M357.642 16.485 C 355.639 19.501,354.000 22.426,354.000 22.985 C 354.000 25.064,355.809 23.886,358.198 20.250 C 364.469 10.705,364.324 11.000,362.757 11.000 C 361.946 11.000,359.644 13.468,357.642 16.485 M364.527 16.237 C 361.062 21.382,360.162 24.000,361.858 24.000 C 362.677 24.000,370.000 12.847,370.000 11.599 C 370.000 9.647,367.588 11.691,364.527 16.237 M11.161 16.043 C 7.409 18.330,7.878 19.851,13.177 22.592 C 16.583 24.353,17.262 22.351,14.046 20.033 C 12.107 18.635,12.107 18.614,14.046 17.255 C 18.509 14.129,16.018 13.082,11.161 16.043 M38.837 16.459 C 37.455 19.491,39.944 24.000,43.000 24.000 C 46.056 24.000,48.545 19.491,47.163 16.459 C 45.584 12.994,40.416 12.994,38.837 16.459 M49.195 18.666 C 49.571 24.433,51.741 25.683,52.186 20.389 C 52.633 15.069,55.000 14.671,55.000 19.917 C 55.000 24.997,56.767 25.328,57.190 20.327 C 57.612 15.332,59.783 14.813,60.186 19.611 C 60.685 25.542,63.187 25.296,62.809 19.353 L 62.500 14.500 55.695 14.245 L 48.890 13.989 49.195 18.666 M65.000 20.500 C 65.000 25.611,65.321 27.000,66.500 27.000 C 67.325 27.000,68.000 26.325,68.000 25.500 C 68.000 24.675,68.810 24.000,69.800 24.000 C 72.347 24.000,74.000 22.032,74.000 19.000 C 74.000 15.514,72.275 14.000,68.300 14.000 L 65.000 14.000 65.000 20.500 M75.667 14.667 C 74.497 15.836,74.949 19.483,76.547 21.764 C 78.017 23.863,83.089 24.515,83.750 22.691 C 84.450 20.757,83.867 14.000,83.000 14.000 C 82.450 14.000,82.000 15.323,82.000 16.941 C 82.000 18.559,81.500 20.191,80.888 20.569 C 79.500 21.427,78.036 19.225,78.015 16.250 C 78.000 14.039,76.981 13.352,75.667 14.667 M93.245 15.155 C 90.284 18.116,93.583 24.612,97.650 23.829 C 100.078 23.361,102.022 19.239,101.056 16.605 C 100.156 14.151,95.174 13.226,93.245 15.155 M103.000 19.083 C 103.000 24.854,105.270 25.686,105.818 20.116 C 105.992 18.339,106.780 16.638,107.568 16.336 C 110.051 15.383,109.123 14.000,106.000 14.000 C 103.060 14.000,103.000 14.102,103.000 19.083 M129.245 15.155 C 126.428 17.972,128.900 24.000,132.871 24.000 C 134.677 24.000,137.000 22.189,137.000 20.781 C 137.000 20.330,135.827 20.256,134.393 20.616 C 131.571 21.324,129.790 19.711,130.719 17.289 C 131.096 16.308,132.138 16.091,134.245 16.554 C 136.514 17.052,137.129 16.884,136.791 15.855 C 136.204 14.068,130.831 13.569,129.245 15.155 M138.195 18.672 C 138.630 25.344,141.000 25.691,141.000 19.083 C 141.000 15.152,140.648 14.000,139.445 14.000 C 138.217 14.000,137.954 14.982,138.195 18.672 M143.200 15.200 C 139.926 18.474,143.799 24.769,148.380 23.619 C 151.299 22.887,152.910 17.802,150.966 15.459 C 149.502 13.695,144.860 13.540,143.200 15.200 M153.000 19.026 C 153.000 24.924,155.158 25.625,156.000 20.000 C 156.716 15.219,158.801 15.015,159.186 19.688 C 159.610 24.841,161.500 24.075,161.500 18.750 L 161.500 14.500 157.250 14.193 L 153.000 13.885 153.000 19.026 M164.245 15.155 C 162.437 16.963,162.719 20.436,164.829 22.345 C 166.988 24.299,169.137 24.463,170.800 22.800 C 172.806 20.794,172.157 20.019,169.000 20.650 C 166.258 21.198,166.000 21.017,166.000 18.546 C 166.000 16.038,166.227 15.891,169.118 16.526 C 171.504 17.050,172.132 16.892,171.791 15.855 C 171.204 14.068,165.831 13.569,164.245 15.155 M174.125 14.876 C 170.677 17.124,173.649 24.000,178.069 24.000 C 183.100 24.000,183.512 14.675,178.500 14.239 C 176.850 14.096,174.881 14.383,174.125 14.876 M217.837 16.459 C 215.298 22.030,222.298 26.527,225.619 21.459 C 228.030 17.780,226.196 14.000,222.000 14.000 C 219.738 14.000,218.670 14.631,217.837 16.459 M248.837 16.459 C 246.298 22.030,253.298 26.527,256.619 21.459 C 259.030 17.780,257.196 14.000,253.000 14.000 C 250.738 14.000,249.670 14.631,248.837 16.459 M269.932 16.126 C 267.634 20.421,273.657 26.190,277.290 23.175 C 278.948 21.799,279.303 17.071,277.878 15.354 C 276.093 13.202,271.245 13.674,269.932 16.126 M281.064 15.422 C 278.084 19.014,280.815 27.000,285.024 27.000 C 288.634 27.000,290.000 24.685,290.000 18.566 L 290.000 14.000 286.122 14.000 C 283.990 14.000,281.714 14.640,281.064 15.422 M292.200 15.200 C 288.540 18.860,293.450 26.098,297.752 23.385 C 299.760 22.118,300.472 17.273,298.924 15.408 C 297.494 13.685,293.828 13.572,292.200 15.200 M327.000 15.361 C 327.000 16.263,327.929 16.607,329.750 16.380 C 332.307 16.061,332.331 16.090,330.095 16.791 C 324.179 18.646,325.332 24.039,331.594 23.804 C 335.111 23.672,336.233 20.376,334.393 15.582 C 333.616 13.558,327.000 13.361,327.000 15.361 M337.150 18.606 C 338.625 21.940,338.885 23.515,338.094 24.306 C 336.550 25.850,336.736 27.000,338.531 27.000 C 339.374 27.000,340.340 26.212,340.679 25.250 C 341.018 24.288,342.160 21.544,343.217 19.153 C 344.274 16.762,344.912 14.579,344.636 14.303 C 343.802 13.469,341.912 15.068,341.033 17.352 C 340.232 19.434,340.173 19.415,339.128 16.750 C 338.535 15.238,337.389 14.000,336.581 14.000 C 335.372 14.000,335.473 14.814,337.150 18.606 M372.000 14.992 C 372.000 15.537,372.871 16.527,373.936 17.192 C 375.851 18.388,375.851 18.416,373.936 19.757 C 370.645 22.063,371.369 24.378,374.823 22.592 C 380.071 19.878,380.475 18.457,376.668 16.104 C 372.863 13.752,372.000 13.546,372.000 14.992 M44.820 18.828 C 45.060 20.461,44.625 21.000,43.070 21.000 C 41.729 21.000,41.000 20.354,41.000 19.167 C 41.000 15.365,44.267 15.076,44.820 18.828 M71.500 18.500 C 71.500 19.585,70.713 20.624,69.750 20.810 C 68.439 21.062,68.000 20.482,68.000 18.500 C 68.000 16.518,68.439 15.938,69.750 16.190 C 70.713 16.376,71.500 17.415,71.500 18.500 M254.820 18.828 C 255.060 20.461,254.625 21.000,253.070 21.000 C 251.729 21.000,251.000 20.354,251.000 19.167 C 251.000 15.365,254.267 15.076,254.820 18.828 M286.820 18.760 C 287.059 20.435,286.638 21.000,285.153 21.000 C 283.035 21.000,281.989 19.330,282.773 17.201 C 283.528 15.152,286.466 16.284,286.820 18.760 M331.808 20.075 C 331.611 20.666,331.022 21.150,330.500 21.150 C 329.978 21.150,329.389 20.666,329.192 20.075 C 328.995 19.484,329.583 19.000,330.500 19.000 C 331.417 19.000,332.005 19.484,331.808 20.075 M148.200 21.200 C 147.267 22.133,146.733 22.133,145.800 21.200 C 144.867 20.267,145.133 20.000,147.000 20.000 C 148.867 20.000,149.133 20.267,148.200 21.200 M184.000 23.000 C 184.000 24.100,184.450 25.000,185.000 25.000 C 185.550 25.000,186.000 24.100,186.000 23.000 C 186.000 21.900,185.550 21.000,185.000 21.000 C 184.450 21.000,184.000 21.900,184.000 23.000 " stroke="none" fill="#ffffff" fill-rule="evenodd"></path></g></svg>