 <svg version="1.0" xmlns="http://www.w3.org/2000/svg" width="700.000000pt" height="144.000000pt" viewBox="0 0 700.000000 144.000000" preserveAspectRatio="xMidYMid meet">
<metadata>
Created by potrace 1.12, written by Peter Selinger 2001-2015
</metadata>
<g transform="translate(0.000000,144.000000) scale(0.100000,-0.100000)" fill="#fff" stroke="none">
<path d="M5628 752 c-109 -246 -198 -453 -198 -459 0 -14 31 -26 40 -16 19 20
401 903 395 913 -24 38 -42 4 -237 -438z"></path>
<path d="M5903 1158 c-10 -17 -103 -222 -269 -598 -125 -282 -134 -305 -118
-317 10 -7 21 -10 25 -6 5 5 71 150 147 323 77 173 167 375 201 449 47 103 58
137 50 147 -14 17 -25 18 -36 2z"></path>
<path d="M642 937 c-121 -121 -192 -200 -192 -212 0 -28 378 -405 406 -405 24
0 44 18 44 39 0 9 -79 95 -175 191 l-175 175 175 175 c96 96 175 182 175 190
0 22 -20 40 -45 40 -13 0 -87 -67 -213 -193z"></path>
<path d="M6142 1118 c-7 -7 -12 -19 -12 -28 0 -8 77 -92 170 -185 94 -93 170
-174 170 -180 0 -6 -76 -87 -170 -180 -93 -93 -170 -177 -170 -185 0 -22 20
-40 44 -40 28 0 406 377 406 405 0 28 -378 405 -406 405 -11 0 -25 -5 -32 -12z"></path>
<path d="M1360 820 l0 -280 35 0 34 0 3 128 3 127 140 0 140 0 3 -127 3 -128
34 0 35 0 0 280 0 280 -35 0 -34 0 -3 -117 -3 -118 -140 0 -140 0 -3 118 -3
117 -34 0 -35 0 0 -280z"></path>
<path d="M2962 823 l3 -278 33 -3 32 -3 0 126 c0 136 11 180 51 209 35 24 91
21 117 -7 21 -22 22 -33 22 -176 l0 -152 33 3 32 3 3 146 c3 176 -6 216 -58
241 -51 26 -110 23 -154 -7 -20 -14 -39 -25 -41 -25 -3 0 -5 45 -5 100 l0 100
-35 0 -35 0 2 -277z"></path>
<path d="M3630 820 l0 -280 35 0 34 0 3 118 3 117 117 5 c130 6 158 17 191 81
24 45 19 138 -9 177 -39 52 -75 62 -231 62 l-143 0 0 -280z m296 187 c33 -38
33 -96 0 -134 -23 -27 -27 -28 -123 -28 l-98 0 -3 84 c-2 46 0 91 3 99 4 11
25 13 101 10 91 -3 97 -5 120 -31z"></path>
<path d="M5150 819 l0 -280 33 3 32 3 3 278 2 277 -35 0 -35 0 0 -281z"></path>
<path d="M4528 998 c-3 -46 -6 -53 -25 -56 -17 -2 -23 -10 -23 -27 0 -17 6
-25 23 -27 22 -3 22 -6 27 -171 6 -192 8 -197 87 -197 41 0 43 1 43 29 0 25
-4 30 -27 33 l-28 3 -3 153 -3 152 31 0 c25 0 30 4 30 25 0 21 -5 25 -29 25
-29 0 -30 2 -33 53 -3 50 -4 52 -35 55 l-32 3 -3 -53z"></path>
<path d="M1973 939 c-38 -11 -83 -62 -83 -95 0 -20 5 -24 30 -24 22 0 33 7 44
29 25 48 111 57 151 16 48 -47 25 -81 -65 -96 -36 -5 -79 -14 -96 -20 -99 -31
-111 -169 -19 -213 49 -23 121 -17 164 13 l32 23 25 -27 c32 -34 87 -33 92 3
2 12 -1 22 -7 22 -5 0 -17 7 -25 16 -13 12 -16 41 -16 152 0 154 -7 173 -66
198 -37 16 -112 17 -161 3z m165 -251 c2 -28 -3 -43 -25 -68 -55 -62 -173 -49
-173 19 0 15 8 36 19 45 17 15 143 47 166 42 6 -2 11 -19 13 -38z"></path>
<path d="M2420 914 l-40 -36 0 31 c0 28 -3 31 -30 31 l-30 0 0 -200 0 -200 35
0 35 0 0 130 c0 167 19 210 93 210 20 0 26 6 29 30 3 17 2 32 0 35 -15 15 -57
1 -92 -31z"></path>
<path d="M2634 936 c-44 -19 -74 -62 -74 -105 0 -67 37 -97 153 -127 36 -9 74
-25 84 -36 16 -17 16 -22 2 -46 -17 -32 -64 -47 -114 -38 -27 5 -41 16 -57 42
-16 28 -26 34 -47 32 -34 -4 -38 -32 -11 -76 29 -46 80 -66 157 -59 97 7 149
54 147 129 -2 52 -33 84 -103 104 -138 40 -154 52 -133 98 21 47 123 48 144 1
9 -19 19 -25 45 -25 37 0 40 8 17 55 -27 57 -135 83 -210 51z"></path>
<path d="M4183 939 c-38 -11 -83 -62 -83 -95 0 -20 5 -24 30 -24 17 0 30 5 30
10 0 6 11 22 25 35 18 19 35 25 67 25 59 0 88 -22 88 -65 0 -19 -4 -36 -8 -39
-4 -2 -47 -11 -94 -20 -48 -8 -98 -22 -111 -31 -70 -46 -59 -169 18 -201 50
-20 95 -17 150 10 l48 25 20 -25 c15 -20 27 -24 56 -22 29 2 37 8 39 25 3 17
-3 26 -22 33 l-26 10 0 137 c0 90 -5 147 -13 163 -25 51 -126 74 -214 49z
m155 -261 c-3 -47 -7 -55 -37 -75 -41 -28 -106 -31 -133 -6 -23 21 -23 65 1
87 14 13 106 38 164 45 4 1 7 -22 5 -51z"></path>
<path d="M4803 931 c-104 -48 -137 -235 -60 -345 43 -61 145 -82 224 -46 43
19 83 69 83 103 0 32 -48 20 -89 -23 -29 -30 -46 -40 -70 -40 -63 0 -121 52
-121 110 0 19 5 20 145 20 l145 0 0 53 c0 143 -128 226 -257 168z m153 -75
c21 -21 34 -44 34 -60 l0 -26 -110 0 c-73 0 -110 4 -110 11 0 25 32 76 58 91
45 29 89 23 128 -16z"></path>
</g>
</svg>